<svg width="32" height="32" viewBox="0 9 175 250"
     class="looka-1j8o68f">
    <defs id="SvgjsDefs1629"></defs>
    <g id="SvgjsG1630" featurekey="symbolFeature-0"
       transform="matrix(2.518540091175342,0,0,2.518540091175342,-37.45042009501382,7.405959302337404)" fill="#f8b500">
        <path xmlns="http://www.w3.org/2000/svg"
              d="M77.189,67.812C77.189,82.828,65.016,95,50,95S22.811,82.828,22.811,67.812c0-15.017,12.174-27.19,27.189-27.19  c2.332,0,4.596,0.295,6.756,0.847c-0.021,0.269-0.045,0.512-0.077,0.704c-0.458,2.751-2.661,6.809-3.603,7.066  c-0.617,0.168-2.104,0.801-2.576,3.04c-0.585,2.762,0.438,8.278,3.814,11.029c2.334,1.9,5.052,2.301,6.921,2.301  c1.947,0,3.813-0.438,4.869-1.143c0.739-0.492,4.065-4.705,6.571-11.654C75.525,57.111,77.189,62.266,77.189,67.812z M43.443,40.331  c0,0-3.927-14.326-2.089-19.337c0.689-3.55,4.177-2.338,4.177-2.338s6.85,1.357,10.608,5.178c2.86,3.132,3.133,7.894,3.133,7.894  s0.585,8.145,0.126,10.901c-0.461,2.756-2.842,8.52-5.598,9.272c-1.379,0.376-0.783,6.798,2.255,9.271  c3.038,2.477,7.519,1.671,8.521,1.004c1.002-0.668,12.278-15.537,6.787-37.965C68.23,10.991,50.502,6.48,50.376,6.292  c0,0-12.279-4.26-17.542,2.694c-6.64,8.332-4.886,20.36-4.886,20.36s-0.146,2.109,4.051,16.33c0,0,2.924-2.254,5.263-3.299  C40.227,41.041,43.443,40.331,43.443,40.331z"></path>
    </g>
</svg>